<mxfile host="app.diagrams.net" modified="2021-01-07T11:18:54.490Z" agent="5.0 (Macintosh; Intel Mac OS X 11_1_0) AppleWebKit/537.36 (KHTML, like Gecko) Chrome/87.0.4280.88 Safari/537.36" etag="4SJqorKw5lPUvs2rjXJB" version="14.1.3" type="github">
  <diagram name="Page-1" id="13e1069c-82ec-6db2-03f1-153e76fe0fe0">
    <mxGraphModel dx="1126" dy="699" grid="1" gridSize="10" guides="1" tooltips="1" connect="1" arrows="1" fold="1" page="1" pageScale="1" pageWidth="1100" pageHeight="850" background="#ffffff" math="0" shadow="0">
      <root>
        <mxCell id="0" />
        <mxCell id="1" parent="0" />
        <mxCell id="7baba1c4bc27f4b0-2" value="사용자 Entity" style="shape=umlLifeline;perimeter=lifelinePerimeter;whiteSpace=wrap;html=1;container=1;collapsible=0;recursiveResize=0;outlineConnect=0;rounded=1;shadow=0;comic=0;labelBackgroundColor=none;strokeWidth=1;fontFamily=Verdana;fontSize=12;align=center;" parent="1" vertex="1">
          <mxGeometry x="240" y="80" width="100" height="360" as="geometry" />
        </mxCell>
        <mxCell id="7baba1c4bc27f4b0-10" value="" style="html=1;points=[];perimeter=orthogonalPerimeter;rounded=0;shadow=0;comic=0;labelBackgroundColor=none;strokeWidth=1;fontFamily=Verdana;fontSize=12;align=center;" parent="7baba1c4bc27f4b0-2" vertex="1">
          <mxGeometry x="45" y="279.5" width="10" height="40" as="geometry" />
        </mxCell>
        <mxCell id="7baba1c4bc27f4b0-3" value="뿌리기 Entity" style="shape=umlLifeline;perimeter=lifelinePerimeter;whiteSpace=wrap;html=1;container=1;collapsible=0;recursiveResize=0;outlineConnect=0;rounded=1;shadow=0;comic=0;labelBackgroundColor=none;strokeWidth=1;fontFamily=Verdana;fontSize=12;align=center;" parent="1" vertex="1">
          <mxGeometry x="400" y="80" width="100" height="360" as="geometry" />
        </mxCell>
        <mxCell id="7baba1c4bc27f4b0-13" value="" style="html=1;points=[];perimeter=orthogonalPerimeter;rounded=0;shadow=0;comic=0;labelBackgroundColor=none;strokeWidth=1;fontFamily=Verdana;fontSize=12;align=center;" parent="7baba1c4bc27f4b0-3" vertex="1">
          <mxGeometry x="45" y="179" width="10" height="41" as="geometry" />
        </mxCell>
        <mxCell id="7baba1c4bc27f4b0-4" value="티켓 Entity" style="shape=umlLifeline;perimeter=lifelinePerimeter;whiteSpace=wrap;html=1;container=1;collapsible=0;recursiveResize=0;outlineConnect=0;rounded=1;shadow=0;comic=0;labelBackgroundColor=none;strokeWidth=1;fontFamily=Verdana;fontSize=12;align=center;" parent="1" vertex="1">
          <mxGeometry x="540" y="80" width="100" height="360" as="geometry" />
        </mxCell>
        <mxCell id="7baba1c4bc27f4b0-5" value="Repository" style="shape=umlLifeline;perimeter=lifelinePerimeter;whiteSpace=wrap;html=1;container=1;collapsible=0;recursiveResize=0;outlineConnect=0;rounded=1;shadow=0;comic=0;labelBackgroundColor=none;strokeWidth=1;fontFamily=Verdana;fontSize=12;align=center;" parent="1" vertex="1">
          <mxGeometry x="680" y="80" width="100" height="360" as="geometry" />
        </mxCell>
        <mxCell id="fO7a_FFpmHtgx1kZ53Yg-21" value="" style="html=1;points=[];perimeter=orthogonalPerimeter;rounded=0;shadow=0;comic=0;labelBackgroundColor=none;strokeWidth=1;fontFamily=Verdana;fontSize=12;align=center;" parent="7baba1c4bc27f4b0-5" vertex="1">
          <mxGeometry x="45" y="100" width="10" height="40" as="geometry" />
        </mxCell>
        <mxCell id="7baba1c4bc27f4b0-8" value="뿌리기 Service" style="shape=umlLifeline;perimeter=lifelinePerimeter;whiteSpace=wrap;html=1;container=1;collapsible=0;recursiveResize=0;outlineConnect=0;rounded=1;shadow=0;comic=0;labelBackgroundColor=none;strokeWidth=1;fontFamily=Verdana;fontSize=12;align=center;" parent="1" vertex="1">
          <mxGeometry x="100" y="80" width="100" height="360" as="geometry" />
        </mxCell>
        <mxCell id="7baba1c4bc27f4b0-9" value="" style="html=1;points=[];perimeter=orthogonalPerimeter;rounded=0;shadow=0;comic=0;labelBackgroundColor=none;strokeWidth=1;fontFamily=Verdana;fontSize=12;align=center;" parent="7baba1c4bc27f4b0-8" vertex="1">
          <mxGeometry x="45" y="90" width="10" height="250" as="geometry" />
        </mxCell>
        <mxCell id="7baba1c4bc27f4b0-22" value="" style="html=1;points=[];perimeter=orthogonalPerimeter;rounded=0;shadow=0;comic=0;labelBackgroundColor=none;strokeWidth=1;fontFamily=Verdana;fontSize=12;align=center;" parent="1" vertex="1">
          <mxGeometry x="585" y="340" width="10" height="80" as="geometry" />
        </mxCell>
        <mxCell id="7baba1c4bc27f4b0-23" value="티켓 수령 등록(Param : 수령인)" style="html=1;verticalAlign=bottom;endArrow=block;entryX=0;entryY=0;labelBackgroundColor=none;fontFamily=Verdana;fontSize=12;" parent="1" edge="1">
          <mxGeometry relative="1" as="geometry">
            <mxPoint x="155.0000000000001" y="339.0000000000002" as="sourcePoint" />
            <mxPoint x="585" y="339.0000000000002" as="targetPoint" />
          </mxGeometry>
        </mxCell>
        <mxCell id="7baba1c4bc27f4b0-30" value="미할당 티켓 return" style="html=1;verticalAlign=bottom;endArrow=open;dashed=1;endSize=8;labelBackgroundColor=none;fontFamily=Verdana;fontSize=12;edgeStyle=elbowEdgeStyle;elbow=vertical;" parent="1" edge="1">
          <mxGeometry relative="1" as="geometry">
            <mxPoint x="155.0000000000001" y="299" as="targetPoint" />
            <Array as="points">
              <mxPoint x="388" y="299" />
            </Array>
            <mxPoint x="446" y="299" as="sourcePoint" />
          </mxGeometry>
        </mxCell>
        <mxCell id="7baba1c4bc27f4b0-11" value="뿌리기 / 사용자(수령인) Entity 조회" style="html=1;verticalAlign=bottom;endArrow=block;entryX=-0.2;entryY=0;labelBackgroundColor=none;fontFamily=Verdana;fontSize=12;edgeStyle=elbowEdgeStyle;elbow=vertical;entryDx=0;entryDy=0;entryPerimeter=0;" parent="1" source="7baba1c4bc27f4b0-9" target="fO7a_FFpmHtgx1kZ53Yg-21" edge="1">
          <mxGeometry relative="1" as="geometry">
            <mxPoint x="220" y="190" as="sourcePoint" />
          </mxGeometry>
        </mxCell>
        <mxCell id="fO7a_FFpmHtgx1kZ53Yg-1" value="뿌리기 / 사용자(수령인)&lt;br&gt;&amp;nbsp;Entity return" style="html=1;verticalAlign=bottom;endArrow=open;dashed=1;endSize=8;labelBackgroundColor=none;fontFamily=Verdana;fontSize=12;edgeStyle=elbowEdgeStyle;elbow=vertical;" parent="1" source="fO7a_FFpmHtgx1kZ53Yg-21" edge="1">
          <mxGeometry relative="1" as="geometry">
            <mxPoint x="155.0000000000001" y="219" as="targetPoint" />
            <Array as="points">
              <mxPoint x="171" y="219" />
              <mxPoint x="276" y="219" />
            </Array>
            <mxPoint x="284" y="219" as="sourcePoint" />
          </mxGeometry>
        </mxCell>
        <mxCell id="fO7a_FFpmHtgx1kZ53Yg-11" value="수령 금액 return" style="html=1;verticalAlign=bottom;endArrow=open;dashed=1;endSize=8;labelBackgroundColor=none;fontFamily=Verdana;fontSize=12;edgeStyle=elbowEdgeStyle;elbow=vertical;" parent="1" edge="1">
          <mxGeometry relative="1" as="geometry">
            <mxPoint x="155.0000000000001" y="420" as="targetPoint" />
            <Array as="points">
              <mxPoint x="391" y="420" />
            </Array>
            <mxPoint x="585" y="420" as="sourcePoint" />
          </mxGeometry>
        </mxCell>
        <mxCell id="fO7a_FFpmHtgx1kZ53Yg-17" value="&lt;strike&gt;&lt;font color=&quot;#ff0000&quot;&gt;입금 요청&lt;/font&gt;&lt;/strike&gt;" style="html=1;verticalAlign=bottom;endArrow=block;labelBackgroundColor=none;fontFamily=Verdana;fontSize=12;edgeStyle=elbowEdgeStyle;elbow=vertical;entryX=0.978;entryY=0.727;entryDx=0;entryDy=0;entryPerimeter=0;fillColor=#ffe6cc;strokeColor=#d79b00;" parent="1" edge="1">
          <mxGeometry relative="1" as="geometry">
            <mxPoint x="585" y="380.12" as="sourcePoint" />
            <mxPoint x="294.78" y="380" as="targetPoint" />
            <Array as="points">
              <mxPoint x="520.5" y="380.12" />
              <mxPoint x="540.5" y="577.12" />
              <mxPoint x="470.5" y="577.12" />
            </Array>
          </mxGeometry>
        </mxCell>
        <mxCell id="7baba1c4bc27f4b0-14" value="수령 가능 티켓 요청" style="html=1;verticalAlign=bottom;endArrow=block;labelBackgroundColor=none;fontFamily=Verdana;fontSize=12;edgeStyle=elbowEdgeStyle;elbow=vertical;entryX=0.061;entryY=-0.001;entryDx=0;entryDy=0;entryPerimeter=0;" parent="1" source="7baba1c4bc27f4b0-9" target="7baba1c4bc27f4b0-13" edge="1">
          <mxGeometry relative="1" as="geometry">
            <mxPoint x="156" y="259" as="sourcePoint" />
            <mxPoint x="444" y="259" as="targetPoint" />
            <Array as="points">
              <mxPoint x="422" y="259" />
              <mxPoint x="240.86" y="144.85" />
              <mxPoint x="210.86" y="164.85" />
            </Array>
          </mxGeometry>
        </mxCell>
        <mxCell id="PUn6JvOlg91gVEdI1GQp-1" value="입금 요청" style="html=1;verticalAlign=bottom;endArrow=block;labelBackgroundColor=none;fontFamily=Verdana;fontSize=12;" edge="1" parent="1">
          <mxGeometry relative="1" as="geometry">
            <mxPoint x="155" y="379.5000000000002" as="sourcePoint" />
            <mxPoint x="280" y="380" as="targetPoint" />
          </mxGeometry>
        </mxCell>
        <mxCell id="PUn6JvOlg91gVEdI1GQp-2" value="" style="html=1;verticalAlign=bottom;endArrow=block;labelBackgroundColor=none;fontFamily=Verdana;fontSize=12;" edge="1" parent="1">
          <mxGeometry relative="1" as="geometry">
            <mxPoint x="240" y="684.5000000000002" as="sourcePoint" />
            <mxPoint x="780" y="686" as="targetPoint" />
          </mxGeometry>
        </mxCell>
        <mxCell id="PUn6JvOlg91gVEdI1GQp-3" value="티켓 받기&lt;br&gt;사용자 : A" style="shape=ext;rounded=1;html=1;whiteSpace=wrap;" vertex="1" parent="1">
          <mxGeometry x="120" y="670" width="120" height="30" as="geometry" />
        </mxCell>
        <mxCell id="PUn6JvOlg91gVEdI1GQp-4" value="중복수령&lt;br&gt;validation" style="shape=umlLifeline;perimeter=lifelinePerimeter;whiteSpace=wrap;html=1;container=1;collapsible=0;recursiveResize=0;outlineConnect=0;rounded=1;shadow=0;comic=0;labelBackgroundColor=none;strokeWidth=1;fontFamily=Verdana;fontSize=12;align=center;size=40;" vertex="1" parent="1">
          <mxGeometry x="270" y="590" width="100" height="96" as="geometry" />
        </mxCell>
        <mxCell id="PUn6JvOlg91gVEdI1GQp-6" value="수령&lt;br&gt;티켓 1번 update" style="shape=umlLifeline;perimeter=lifelinePerimeter;whiteSpace=wrap;html=1;container=1;collapsible=0;recursiveResize=0;outlineConnect=0;rounded=1;shadow=0;comic=0;labelBackgroundColor=none;strokeWidth=1;fontFamily=Verdana;fontSize=12;align=center;size=40;" vertex="1" parent="1">
          <mxGeometry x="507" y="590" width="100" height="96" as="geometry" />
        </mxCell>
        <mxCell id="PUn6JvOlg91gVEdI1GQp-7" value="SpreaderTicket" style="shape=table;html=1;whiteSpace=wrap;startSize=30;container=1;collapsible=0;childLayout=tableLayout;fixedRows=1;rowLines=0;fontStyle=1;align=center;" vertex="1" parent="1">
          <mxGeometry x="850" y="620" width="180" height="160" as="geometry" />
        </mxCell>
        <mxCell id="PUn6JvOlg91gVEdI1GQp-8" value="" style="shape=partialRectangle;html=1;whiteSpace=wrap;collapsible=0;dropTarget=0;pointerEvents=0;fillColor=none;top=0;left=0;bottom=1;right=0;points=[[0,0.5],[1,0.5]];portConstraint=eastwest;" vertex="1" parent="PUn6JvOlg91gVEdI1GQp-7">
          <mxGeometry y="30" width="180" height="30" as="geometry" />
        </mxCell>
        <mxCell id="PUn6JvOlg91gVEdI1GQp-9" value="티컷번호" style="shape=partialRectangle;html=1;whiteSpace=wrap;connectable=0;fillColor=none;top=0;left=0;bottom=0;right=0;overflow=hidden;" vertex="1" parent="PUn6JvOlg91gVEdI1GQp-8">
          <mxGeometry width="60" height="30" as="geometry" />
        </mxCell>
        <mxCell id="PUn6JvOlg91gVEdI1GQp-10" value="수령자" style="shape=partialRectangle;html=1;whiteSpace=wrap;connectable=0;fillColor=none;top=0;left=0;bottom=0;right=0;align=left;spacingLeft=6;overflow=hidden;" vertex="1" parent="PUn6JvOlg91gVEdI1GQp-8">
          <mxGeometry x="60" width="120" height="30" as="geometry" />
        </mxCell>
        <mxCell id="PUn6JvOlg91gVEdI1GQp-11" value="" style="shape=partialRectangle;html=1;whiteSpace=wrap;collapsible=0;dropTarget=0;pointerEvents=0;fillColor=none;top=0;left=0;bottom=0;right=0;points=[[0,0.5],[1,0.5]];portConstraint=eastwest;" vertex="1" parent="PUn6JvOlg91gVEdI1GQp-7">
          <mxGeometry y="60" width="180" height="30" as="geometry" />
        </mxCell>
        <mxCell id="PUn6JvOlg91gVEdI1GQp-12" value="1" style="shape=partialRectangle;html=1;whiteSpace=wrap;connectable=0;fillColor=none;top=0;left=0;bottom=0;right=0;overflow=hidden;" vertex="1" parent="PUn6JvOlg91gVEdI1GQp-11">
          <mxGeometry width="60" height="30" as="geometry" />
        </mxCell>
        <mxCell id="PUn6JvOlg91gVEdI1GQp-13" value="사용자 : A" style="shape=partialRectangle;html=1;whiteSpace=wrap;connectable=0;fillColor=none;top=0;left=0;bottom=0;right=0;align=left;spacingLeft=6;overflow=hidden;" vertex="1" parent="PUn6JvOlg91gVEdI1GQp-11">
          <mxGeometry x="60" width="120" height="30" as="geometry" />
        </mxCell>
        <mxCell id="PUn6JvOlg91gVEdI1GQp-14" value="" style="shape=partialRectangle;html=1;whiteSpace=wrap;collapsible=0;dropTarget=0;pointerEvents=0;fillColor=none;top=0;left=0;bottom=0;right=0;points=[[0,0.5],[1,0.5]];portConstraint=eastwest;" vertex="1" parent="PUn6JvOlg91gVEdI1GQp-7">
          <mxGeometry y="90" width="180" height="30" as="geometry" />
        </mxCell>
        <mxCell id="PUn6JvOlg91gVEdI1GQp-15" value="2" style="shape=partialRectangle;html=1;whiteSpace=wrap;connectable=0;fillColor=none;top=0;left=0;bottom=0;right=0;overflow=hidden;" vertex="1" parent="PUn6JvOlg91gVEdI1GQp-14">
          <mxGeometry width="60" height="30" as="geometry" />
        </mxCell>
        <mxCell id="PUn6JvOlg91gVEdI1GQp-16" value="사용자 : A" style="shape=partialRectangle;html=1;whiteSpace=wrap;connectable=0;fillColor=none;top=0;left=0;bottom=0;right=0;align=left;spacingLeft=6;overflow=hidden;" vertex="1" parent="PUn6JvOlg91gVEdI1GQp-14">
          <mxGeometry x="60" width="120" height="30" as="geometry" />
        </mxCell>
        <mxCell id="PUn6JvOlg91gVEdI1GQp-18" value="" style="shape=partialRectangle;html=1;whiteSpace=wrap;collapsible=0;dropTarget=0;pointerEvents=0;fillColor=none;top=0;left=0;bottom=0;right=0;points=[[0,0.5],[1,0.5]];portConstraint=eastwest;" vertex="1" parent="PUn6JvOlg91gVEdI1GQp-7">
          <mxGeometry y="120" width="180" height="30" as="geometry" />
        </mxCell>
        <mxCell id="PUn6JvOlg91gVEdI1GQp-19" value="3" style="shape=partialRectangle;html=1;whiteSpace=wrap;connectable=0;fillColor=none;top=0;left=0;bottom=0;right=0;overflow=hidden;" vertex="1" parent="PUn6JvOlg91gVEdI1GQp-18">
          <mxGeometry width="60" height="30" as="geometry" />
        </mxCell>
        <mxCell id="PUn6JvOlg91gVEdI1GQp-20" value="빈 티켓" style="shape=partialRectangle;html=1;whiteSpace=wrap;connectable=0;fillColor=none;top=0;left=0;bottom=0;right=0;align=left;spacingLeft=6;overflow=hidden;" vertex="1" parent="PUn6JvOlg91gVEdI1GQp-18">
          <mxGeometry x="60" width="120" height="30" as="geometry" />
        </mxCell>
        <mxCell id="PUn6JvOlg91gVEdI1GQp-17" value="수령 가능한&lt;br&gt;티켓 조회" style="shape=umlLifeline;perimeter=lifelinePerimeter;whiteSpace=wrap;html=1;container=1;collapsible=0;recursiveResize=0;outlineConnect=0;rounded=1;shadow=0;comic=0;labelBackgroundColor=none;strokeWidth=1;fontFamily=Verdana;fontSize=12;align=center;size=40;" vertex="1" parent="1">
          <mxGeometry x="388" y="590" width="100" height="96" as="geometry" />
        </mxCell>
        <mxCell id="PUn6JvOlg91gVEdI1GQp-21" value="" style="endArrow=classic;html=1;strokeColor=#FF0000;entryX=0;entryY=0.5;entryDx=0;entryDy=0;" edge="1" parent="1" target="PUn6JvOlg91gVEdI1GQp-11">
          <mxGeometry width="50" height="50" relative="1" as="geometry">
            <mxPoint x="610" y="600" as="sourcePoint" />
            <mxPoint x="570" y="740" as="targetPoint" />
          </mxGeometry>
        </mxCell>
        <mxCell id="PUn6JvOlg91gVEdI1GQp-22" value="" style="html=1;verticalAlign=bottom;endArrow=block;labelBackgroundColor=none;fontFamily=Verdana;fontSize=12;" edge="1" parent="1">
          <mxGeometry relative="1" as="geometry">
            <mxPoint x="240" y="727.5000000000002" as="sourcePoint" />
            <mxPoint x="780" y="729" as="targetPoint" />
          </mxGeometry>
        </mxCell>
        <mxCell id="PUn6JvOlg91gVEdI1GQp-23" value="티켓 받기&lt;br&gt;사용자 : A" style="shape=ext;rounded=1;html=1;whiteSpace=wrap;" vertex="1" parent="1">
          <mxGeometry x="120" y="713" width="120" height="30" as="geometry" />
        </mxCell>
        <mxCell id="PUn6JvOlg91gVEdI1GQp-27" value="" style="endArrow=classic;html=1;strokeColor=#FF0000;entryX=0;entryY=0.5;entryDx=0;entryDy=0;" edge="1" parent="1" target="PUn6JvOlg91gVEdI1GQp-14">
          <mxGeometry width="50" height="50" relative="1" as="geometry">
            <mxPoint x="753" y="740" as="sourcePoint" />
            <mxPoint x="883" y="815" as="targetPoint" />
          </mxGeometry>
        </mxCell>
        <mxCell id="PUn6JvOlg91gVEdI1GQp-29" value="" style="endArrow=none;dashed=1;html=1;strokeColor=#FF0000;exitX=0.5;exitY=0;exitDx=0;exitDy=0;" edge="1" parent="1" source="PUn6JvOlg91gVEdI1GQp-32">
          <mxGeometry width="50" height="50" relative="1" as="geometry">
            <mxPoint x="349.5" y="771" as="sourcePoint" />
            <mxPoint x="350" y="726" as="targetPoint" />
          </mxGeometry>
        </mxCell>
        <mxCell id="PUn6JvOlg91gVEdI1GQp-30" value="1번 할당" style="text;html=1;strokeColor=none;fillColor=none;align=center;verticalAlign=middle;whiteSpace=wrap;rounded=0;" vertex="1" parent="1">
          <mxGeometry x="440" y="660" width="50" height="20" as="geometry" />
        </mxCell>
        <mxCell id="PUn6JvOlg91gVEdI1GQp-31" value="1번 갱신" style="text;html=1;strokeColor=none;fillColor=none;align=center;verticalAlign=middle;whiteSpace=wrap;rounded=0;" vertex="1" parent="1">
          <mxGeometry x="557" y="660" width="50" height="20" as="geometry" />
        </mxCell>
        <mxCell id="PUn6JvOlg91gVEdI1GQp-32" value="&lt;span style=&quot;font-family: &amp;#34;verdana&amp;#34;&quot;&gt;중복수령&lt;/span&gt;&lt;br style=&quot;font-family: &amp;#34;verdana&amp;#34;&quot;&gt;&lt;span style=&quot;font-family: &amp;#34;verdana&amp;#34;&quot;&gt;validation&lt;/span&gt;" style="rounded=1;whiteSpace=wrap;html=1;" vertex="1" parent="1">
          <mxGeometry x="300" y="783" width="100" height="40" as="geometry" />
        </mxCell>
        <mxCell id="PUn6JvOlg91gVEdI1GQp-34" value="" style="endArrow=none;dashed=1;html=1;strokeColor=#FF0000;exitX=0.5;exitY=0;exitDx=0;exitDy=0;" edge="1" source="PUn6JvOlg91gVEdI1GQp-35" parent="1">
          <mxGeometry width="50" height="50" relative="1" as="geometry">
            <mxPoint x="586.5" y="772" as="sourcePoint" />
            <mxPoint x="587" y="727" as="targetPoint" />
          </mxGeometry>
        </mxCell>
        <mxCell id="PUn6JvOlg91gVEdI1GQp-35" value="&lt;span style=&quot;font-family: &amp;#34;verdana&amp;#34;&quot;&gt;수령 가능한&lt;/span&gt;&lt;br style=&quot;font-family: &amp;#34;verdana&amp;#34;&quot;&gt;&lt;span style=&quot;font-family: &amp;#34;verdana&amp;#34;&quot;&gt;티켓 조회&lt;/span&gt;" style="rounded=1;whiteSpace=wrap;html=1;" vertex="1" parent="1">
          <mxGeometry x="537" y="784" width="100" height="40" as="geometry" />
        </mxCell>
        <mxCell id="PUn6JvOlg91gVEdI1GQp-36" value="2번 할당" style="text;html=1;strokeColor=none;fillColor=none;align=center;verticalAlign=middle;whiteSpace=wrap;rounded=0;" vertex="1" parent="1">
          <mxGeometry x="590" y="730" width="50" height="20" as="geometry" />
        </mxCell>
        <mxCell id="PUn6JvOlg91gVEdI1GQp-37" value="" style="endArrow=none;dashed=1;html=1;strokeColor=#FF0000;exitX=0.5;exitY=0;exitDx=0;exitDy=0;" edge="1" source="PUn6JvOlg91gVEdI1GQp-38" parent="1">
          <mxGeometry width="50" height="50" relative="1" as="geometry">
            <mxPoint x="699.5" y="772" as="sourcePoint" />
            <mxPoint x="700" y="727" as="targetPoint" />
          </mxGeometry>
        </mxCell>
        <mxCell id="PUn6JvOlg91gVEdI1GQp-38" value="&lt;span style=&quot;font-family: &amp;#34;verdana&amp;#34;&quot;&gt;수령 가능한&lt;/span&gt;&lt;br style=&quot;font-family: &amp;#34;verdana&amp;#34;&quot;&gt;&lt;span style=&quot;font-family: &amp;#34;verdana&amp;#34;&quot;&gt;티켓 조회&lt;/span&gt;" style="rounded=1;whiteSpace=wrap;html=1;" vertex="1" parent="1">
          <mxGeometry x="650" y="784" width="100" height="40" as="geometry" />
        </mxCell>
        <mxCell id="PUn6JvOlg91gVEdI1GQp-39" value="2번 갱신" style="text;html=1;strokeColor=none;fillColor=none;align=center;verticalAlign=middle;whiteSpace=wrap;rounded=0;" vertex="1" parent="1">
          <mxGeometry x="703" y="730" width="50" height="20" as="geometry" />
        </mxCell>
        <mxCell id="PUn6JvOlg91gVEdI1GQp-40" value="Thread #1" style="text;html=1;strokeColor=none;fillColor=none;align=center;verticalAlign=middle;whiteSpace=wrap;rounded=0;" vertex="1" parent="1">
          <mxGeometry x="150" y="650" width="60" height="20" as="geometry" />
        </mxCell>
        <mxCell id="PUn6JvOlg91gVEdI1GQp-41" value="Thread #2" style="text;html=1;strokeColor=none;fillColor=none;align=center;verticalAlign=middle;whiteSpace=wrap;rounded=0;" vertex="1" parent="1">
          <mxGeometry x="150" y="743" width="60" height="20" as="geometry" />
        </mxCell>
        <mxCell id="PUn6JvOlg91gVEdI1GQp-42" value="" style="html=1;verticalAlign=bottom;endArrow=block;labelBackgroundColor=none;fontFamily=Verdana;fontSize=12;" edge="1" parent="1" target="PUn6JvOlg91gVEdI1GQp-45">
          <mxGeometry relative="1" as="geometry">
            <mxPoint x="215" y="984.5000000000002" as="sourcePoint" />
            <mxPoint x="590" y="986" as="targetPoint" />
          </mxGeometry>
        </mxCell>
        <mxCell id="PUn6JvOlg91gVEdI1GQp-43" value="티켓 받기&lt;br&gt;사용자 : A" style="shape=ext;rounded=1;html=1;whiteSpace=wrap;" vertex="1" parent="1">
          <mxGeometry x="95" y="970" width="120" height="30" as="geometry" />
        </mxCell>
        <mxCell id="PUn6JvOlg91gVEdI1GQp-44" value="중복수령&lt;br&gt;validation" style="shape=umlLifeline;perimeter=lifelinePerimeter;whiteSpace=wrap;html=1;container=1;collapsible=0;recursiveResize=0;outlineConnect=0;rounded=1;shadow=0;comic=0;labelBackgroundColor=none;strokeWidth=1;fontFamily=Verdana;fontSize=12;align=center;size=40;" vertex="1" parent="1">
          <mxGeometry x="327" y="890" width="100" height="96" as="geometry" />
        </mxCell>
        <mxCell id="PUn6JvOlg91gVEdI1GQp-45" value="수령&lt;br&gt;티켓 1번 update" style="shape=umlLifeline;perimeter=lifelinePerimeter;whiteSpace=wrap;html=1;container=1;collapsible=0;recursiveResize=0;outlineConnect=0;rounded=1;shadow=0;comic=0;labelBackgroundColor=none;strokeWidth=1;fontFamily=Verdana;fontSize=12;align=center;size=40;" vertex="1" parent="1">
          <mxGeometry x="564" y="890" width="100" height="96" as="geometry" />
        </mxCell>
        <mxCell id="PUn6JvOlg91gVEdI1GQp-46" value="SpreaderTicket" style="shape=table;html=1;whiteSpace=wrap;startSize=30;container=1;collapsible=0;childLayout=tableLayout;fixedRows=1;rowLines=0;fontStyle=1;align=center;" vertex="1" parent="1">
          <mxGeometry x="825" y="920" width="180" height="160" as="geometry" />
        </mxCell>
        <mxCell id="PUn6JvOlg91gVEdI1GQp-47" value="" style="shape=partialRectangle;html=1;whiteSpace=wrap;collapsible=0;dropTarget=0;pointerEvents=0;fillColor=none;top=0;left=0;bottom=1;right=0;points=[[0,0.5],[1,0.5]];portConstraint=eastwest;" vertex="1" parent="PUn6JvOlg91gVEdI1GQp-46">
          <mxGeometry y="30" width="180" height="30" as="geometry" />
        </mxCell>
        <mxCell id="PUn6JvOlg91gVEdI1GQp-48" value="티컷번호" style="shape=partialRectangle;html=1;whiteSpace=wrap;connectable=0;fillColor=none;top=0;left=0;bottom=0;right=0;overflow=hidden;" vertex="1" parent="PUn6JvOlg91gVEdI1GQp-47">
          <mxGeometry width="60" height="30" as="geometry" />
        </mxCell>
        <mxCell id="PUn6JvOlg91gVEdI1GQp-49" value="수령자" style="shape=partialRectangle;html=1;whiteSpace=wrap;connectable=0;fillColor=none;top=0;left=0;bottom=0;right=0;align=left;spacingLeft=6;overflow=hidden;" vertex="1" parent="PUn6JvOlg91gVEdI1GQp-47">
          <mxGeometry x="60" width="120" height="30" as="geometry" />
        </mxCell>
        <mxCell id="PUn6JvOlg91gVEdI1GQp-50" value="" style="shape=partialRectangle;html=1;whiteSpace=wrap;collapsible=0;dropTarget=0;pointerEvents=0;fillColor=none;top=0;left=0;bottom=0;right=0;points=[[0,0.5],[1,0.5]];portConstraint=eastwest;" vertex="1" parent="PUn6JvOlg91gVEdI1GQp-46">
          <mxGeometry y="60" width="180" height="30" as="geometry" />
        </mxCell>
        <mxCell id="PUn6JvOlg91gVEdI1GQp-51" value="1" style="shape=partialRectangle;html=1;whiteSpace=wrap;connectable=0;fillColor=none;top=0;left=0;bottom=0;right=0;overflow=hidden;" vertex="1" parent="PUn6JvOlg91gVEdI1GQp-50">
          <mxGeometry width="60" height="30" as="geometry" />
        </mxCell>
        <mxCell id="PUn6JvOlg91gVEdI1GQp-52" value="사용자 : A" style="shape=partialRectangle;html=1;whiteSpace=wrap;connectable=0;fillColor=none;top=0;left=0;bottom=0;right=0;align=left;spacingLeft=6;overflow=hidden;" vertex="1" parent="PUn6JvOlg91gVEdI1GQp-50">
          <mxGeometry x="60" width="120" height="30" as="geometry" />
        </mxCell>
        <mxCell id="PUn6JvOlg91gVEdI1GQp-53" value="" style="shape=partialRectangle;html=1;whiteSpace=wrap;collapsible=0;dropTarget=0;pointerEvents=0;fillColor=none;top=0;left=0;bottom=0;right=0;points=[[0,0.5],[1,0.5]];portConstraint=eastwest;" vertex="1" parent="PUn6JvOlg91gVEdI1GQp-46">
          <mxGeometry y="90" width="180" height="30" as="geometry" />
        </mxCell>
        <mxCell id="PUn6JvOlg91gVEdI1GQp-54" value="2" style="shape=partialRectangle;html=1;whiteSpace=wrap;connectable=0;fillColor=none;top=0;left=0;bottom=0;right=0;overflow=hidden;" vertex="1" parent="PUn6JvOlg91gVEdI1GQp-53">
          <mxGeometry width="60" height="30" as="geometry" />
        </mxCell>
        <mxCell id="PUn6JvOlg91gVEdI1GQp-55" value="빈 티켓" style="shape=partialRectangle;html=1;whiteSpace=wrap;connectable=0;fillColor=none;top=0;left=0;bottom=0;right=0;align=left;spacingLeft=6;overflow=hidden;" vertex="1" parent="PUn6JvOlg91gVEdI1GQp-53">
          <mxGeometry x="60" width="120" height="30" as="geometry" />
        </mxCell>
        <mxCell id="PUn6JvOlg91gVEdI1GQp-56" value="" style="shape=partialRectangle;html=1;whiteSpace=wrap;collapsible=0;dropTarget=0;pointerEvents=0;fillColor=none;top=0;left=0;bottom=0;right=0;points=[[0,0.5],[1,0.5]];portConstraint=eastwest;" vertex="1" parent="PUn6JvOlg91gVEdI1GQp-46">
          <mxGeometry y="120" width="180" height="30" as="geometry" />
        </mxCell>
        <mxCell id="PUn6JvOlg91gVEdI1GQp-57" value="3" style="shape=partialRectangle;html=1;whiteSpace=wrap;connectable=0;fillColor=none;top=0;left=0;bottom=0;right=0;overflow=hidden;" vertex="1" parent="PUn6JvOlg91gVEdI1GQp-56">
          <mxGeometry width="60" height="30" as="geometry" />
        </mxCell>
        <mxCell id="PUn6JvOlg91gVEdI1GQp-58" value="빈 티켓" style="shape=partialRectangle;html=1;whiteSpace=wrap;connectable=0;fillColor=none;top=0;left=0;bottom=0;right=0;align=left;spacingLeft=6;overflow=hidden;" vertex="1" parent="PUn6JvOlg91gVEdI1GQp-56">
          <mxGeometry x="60" width="120" height="30" as="geometry" />
        </mxCell>
        <mxCell id="PUn6JvOlg91gVEdI1GQp-59" value="수령 가능한&lt;br&gt;티켓 조회" style="shape=umlLifeline;perimeter=lifelinePerimeter;whiteSpace=wrap;html=1;container=1;collapsible=0;recursiveResize=0;outlineConnect=0;rounded=1;shadow=0;comic=0;labelBackgroundColor=none;strokeWidth=1;fontFamily=Verdana;fontSize=12;align=center;size=40;" vertex="1" parent="1">
          <mxGeometry x="445" y="890" width="100" height="96" as="geometry" />
        </mxCell>
        <mxCell id="PUn6JvOlg91gVEdI1GQp-60" value="" style="endArrow=classic;html=1;strokeColor=#FF0000;entryX=0;entryY=0.5;entryDx=0;entryDy=0;" edge="1" target="PUn6JvOlg91gVEdI1GQp-50" parent="1">
          <mxGeometry width="50" height="50" relative="1" as="geometry">
            <mxPoint x="670" y="910" as="sourcePoint" />
            <mxPoint x="545" y="1040" as="targetPoint" />
          </mxGeometry>
        </mxCell>
        <mxCell id="PUn6JvOlg91gVEdI1GQp-61" value="" style="html=1;verticalAlign=bottom;endArrow=block;labelBackgroundColor=none;fontFamily=Verdana;fontSize=12;" edge="1" parent="1">
          <mxGeometry relative="1" as="geometry">
            <mxPoint x="215" y="1027.5000000000002" as="sourcePoint" />
            <mxPoint x="755" y="1029" as="targetPoint" />
          </mxGeometry>
        </mxCell>
        <mxCell id="PUn6JvOlg91gVEdI1GQp-62" value="티켓 받기&lt;br&gt;사용자 : A" style="shape=ext;rounded=1;html=1;whiteSpace=wrap;" vertex="1" parent="1">
          <mxGeometry x="95" y="1013" width="120" height="30" as="geometry" />
        </mxCell>
        <mxCell id="PUn6JvOlg91gVEdI1GQp-64" value="" style="endArrow=none;dashed=1;html=1;strokeColor=#FF0000;exitX=0.5;exitY=0;exitDx=0;exitDy=0;" edge="1" source="PUn6JvOlg91gVEdI1GQp-67" parent="1">
          <mxGeometry width="50" height="50" relative="1" as="geometry">
            <mxPoint x="668.5" y="1071" as="sourcePoint" />
            <mxPoint x="669" y="1026" as="targetPoint" />
          </mxGeometry>
        </mxCell>
        <mxCell id="PUn6JvOlg91gVEdI1GQp-65" value="1번 할당" style="text;html=1;strokeColor=none;fillColor=none;align=center;verticalAlign=middle;whiteSpace=wrap;rounded=0;" vertex="1" parent="1">
          <mxGeometry x="497" y="960" width="50" height="20" as="geometry" />
        </mxCell>
        <mxCell id="PUn6JvOlg91gVEdI1GQp-66" value="1번 갱신" style="text;html=1;strokeColor=none;fillColor=none;align=center;verticalAlign=middle;whiteSpace=wrap;rounded=0;" vertex="1" parent="1">
          <mxGeometry x="614" y="960" width="50" height="20" as="geometry" />
        </mxCell>
        <mxCell id="PUn6JvOlg91gVEdI1GQp-67" value="&lt;span style=&quot;font-family: &amp;#34;verdana&amp;#34;&quot;&gt;중복수령&lt;/span&gt;&lt;br style=&quot;font-family: &amp;#34;verdana&amp;#34;&quot;&gt;&lt;span style=&quot;font-family: &amp;#34;verdana&amp;#34;&quot;&gt;validation&lt;/span&gt;" style="rounded=1;whiteSpace=wrap;html=1;" vertex="1" parent="1">
          <mxGeometry x="619" y="1083" width="100" height="40" as="geometry" />
        </mxCell>
        <mxCell id="PUn6JvOlg91gVEdI1GQp-74" value="Thread #1" style="text;html=1;strokeColor=none;fillColor=none;align=center;verticalAlign=middle;whiteSpace=wrap;rounded=0;" vertex="1" parent="1">
          <mxGeometry x="125" y="950" width="60" height="20" as="geometry" />
        </mxCell>
        <mxCell id="PUn6JvOlg91gVEdI1GQp-75" value="Thread #2" style="text;html=1;strokeColor=none;fillColor=none;align=center;verticalAlign=middle;whiteSpace=wrap;rounded=0;" vertex="1" parent="1">
          <mxGeometry x="125" y="1043" width="60" height="20" as="geometry" />
        </mxCell>
        <mxCell id="PUn6JvOlg91gVEdI1GQp-78" value="대기" style="rounded=0;whiteSpace=wrap;html=1;" vertex="1" parent="1">
          <mxGeometry x="270" y="1020" width="340" height="20" as="geometry" />
        </mxCell>
        <mxCell id="PUn6JvOlg91gVEdI1GQp-79" value="중복수령 오류" style="text;html=1;strokeColor=none;fillColor=none;align=center;verticalAlign=middle;whiteSpace=wrap;rounded=0;" vertex="1" parent="1">
          <mxGeometry x="672" y="1030" width="80" height="20" as="geometry" />
        </mxCell>
        <mxCell id="PUn6JvOlg91gVEdI1GQp-80" value="비관적 락&lt;br&gt;Pessimistic" style="shape=umlLifeline;perimeter=lifelinePerimeter;whiteSpace=wrap;html=1;container=1;collapsible=0;recursiveResize=0;outlineConnect=0;rounded=1;shadow=0;comic=0;labelBackgroundColor=none;strokeWidth=1;fontFamily=Verdana;fontSize=12;align=center;size=40;" vertex="1" parent="1">
          <mxGeometry x="220" y="890" width="100" height="96" as="geometry" />
        </mxCell>
        <mxCell id="PUn6JvOlg91gVEdI1GQp-81" value="" style="html=1;verticalAlign=bottom;endArrow=block;labelBackgroundColor=none;fontFamily=Verdana;fontSize=12;" edge="1" target="PUn6JvOlg91gVEdI1GQp-84" parent="1">
          <mxGeometry relative="1" as="geometry">
            <mxPoint x="210" y="1253.5000000000002" as="sourcePoint" />
            <mxPoint x="585" y="1255" as="targetPoint" />
          </mxGeometry>
        </mxCell>
        <mxCell id="PUn6JvOlg91gVEdI1GQp-82" value="티켓 받기&lt;br&gt;사용자 : A" style="shape=ext;rounded=1;html=1;whiteSpace=wrap;" vertex="1" parent="1">
          <mxGeometry x="90" y="1239" width="120" height="30" as="geometry" />
        </mxCell>
        <mxCell id="PUn6JvOlg91gVEdI1GQp-83" value="중복수령&lt;br&gt;validation" style="shape=umlLifeline;perimeter=lifelinePerimeter;whiteSpace=wrap;html=1;container=1;collapsible=0;recursiveResize=0;outlineConnect=0;rounded=1;shadow=0;comic=0;labelBackgroundColor=none;strokeWidth=1;fontFamily=Verdana;fontSize=12;align=center;size=40;" vertex="1" parent="1">
          <mxGeometry x="322" y="1159" width="100" height="96" as="geometry" />
        </mxCell>
        <mxCell id="PUn6JvOlg91gVEdI1GQp-84" value="수령&lt;br&gt;티켓 1번 update" style="shape=umlLifeline;perimeter=lifelinePerimeter;whiteSpace=wrap;html=1;container=1;collapsible=0;recursiveResize=0;outlineConnect=0;rounded=1;shadow=0;comic=0;labelBackgroundColor=none;strokeWidth=1;fontFamily=Verdana;fontSize=12;align=center;size=40;" vertex="1" parent="1">
          <mxGeometry x="559" y="1159" width="100" height="96" as="geometry" />
        </mxCell>
        <mxCell id="PUn6JvOlg91gVEdI1GQp-85" value="SpreaderTicket" style="shape=table;html=1;whiteSpace=wrap;startSize=30;container=1;collapsible=0;childLayout=tableLayout;fixedRows=1;rowLines=0;fontStyle=1;align=center;" vertex="1" parent="1">
          <mxGeometry x="820" y="1189" width="180" height="160" as="geometry" />
        </mxCell>
        <mxCell id="PUn6JvOlg91gVEdI1GQp-86" value="" style="shape=partialRectangle;html=1;whiteSpace=wrap;collapsible=0;dropTarget=0;pointerEvents=0;fillColor=none;top=0;left=0;bottom=1;right=0;points=[[0,0.5],[1,0.5]];portConstraint=eastwest;" vertex="1" parent="PUn6JvOlg91gVEdI1GQp-85">
          <mxGeometry y="30" width="180" height="30" as="geometry" />
        </mxCell>
        <mxCell id="PUn6JvOlg91gVEdI1GQp-87" value="티컷번호" style="shape=partialRectangle;html=1;whiteSpace=wrap;connectable=0;fillColor=none;top=0;left=0;bottom=0;right=0;overflow=hidden;" vertex="1" parent="PUn6JvOlg91gVEdI1GQp-86">
          <mxGeometry width="60" height="30" as="geometry" />
        </mxCell>
        <mxCell id="PUn6JvOlg91gVEdI1GQp-88" value="수령자" style="shape=partialRectangle;html=1;whiteSpace=wrap;connectable=0;fillColor=none;top=0;left=0;bottom=0;right=0;align=left;spacingLeft=6;overflow=hidden;" vertex="1" parent="PUn6JvOlg91gVEdI1GQp-86">
          <mxGeometry x="60" width="120" height="30" as="geometry" />
        </mxCell>
        <mxCell id="PUn6JvOlg91gVEdI1GQp-89" value="" style="shape=partialRectangle;html=1;whiteSpace=wrap;collapsible=0;dropTarget=0;pointerEvents=0;fillColor=none;top=0;left=0;bottom=0;right=0;points=[[0,0.5],[1,0.5]];portConstraint=eastwest;" vertex="1" parent="PUn6JvOlg91gVEdI1GQp-85">
          <mxGeometry y="60" width="180" height="30" as="geometry" />
        </mxCell>
        <mxCell id="PUn6JvOlg91gVEdI1GQp-90" value="1" style="shape=partialRectangle;html=1;whiteSpace=wrap;connectable=0;fillColor=none;top=0;left=0;bottom=0;right=0;overflow=hidden;" vertex="1" parent="PUn6JvOlg91gVEdI1GQp-89">
          <mxGeometry width="60" height="30" as="geometry" />
        </mxCell>
        <mxCell id="PUn6JvOlg91gVEdI1GQp-91" value="사용자 : A" style="shape=partialRectangle;html=1;whiteSpace=wrap;connectable=0;fillColor=none;top=0;left=0;bottom=0;right=0;align=left;spacingLeft=6;overflow=hidden;" vertex="1" parent="PUn6JvOlg91gVEdI1GQp-89">
          <mxGeometry x="60" width="120" height="30" as="geometry" />
        </mxCell>
        <mxCell id="PUn6JvOlg91gVEdI1GQp-92" value="" style="shape=partialRectangle;html=1;whiteSpace=wrap;collapsible=0;dropTarget=0;pointerEvents=0;fillColor=none;top=0;left=0;bottom=0;right=0;points=[[0,0.5],[1,0.5]];portConstraint=eastwest;" vertex="1" parent="PUn6JvOlg91gVEdI1GQp-85">
          <mxGeometry y="90" width="180" height="30" as="geometry" />
        </mxCell>
        <mxCell id="PUn6JvOlg91gVEdI1GQp-93" value="2" style="shape=partialRectangle;html=1;whiteSpace=wrap;connectable=0;fillColor=none;top=0;left=0;bottom=0;right=0;overflow=hidden;" vertex="1" parent="PUn6JvOlg91gVEdI1GQp-92">
          <mxGeometry width="60" height="30" as="geometry" />
        </mxCell>
        <mxCell id="PUn6JvOlg91gVEdI1GQp-94" value="빈 티켓" style="shape=partialRectangle;html=1;whiteSpace=wrap;connectable=0;fillColor=none;top=0;left=0;bottom=0;right=0;align=left;spacingLeft=6;overflow=hidden;" vertex="1" parent="PUn6JvOlg91gVEdI1GQp-92">
          <mxGeometry x="60" width="120" height="30" as="geometry" />
        </mxCell>
        <mxCell id="PUn6JvOlg91gVEdI1GQp-95" value="" style="shape=partialRectangle;html=1;whiteSpace=wrap;collapsible=0;dropTarget=0;pointerEvents=0;fillColor=none;top=0;left=0;bottom=0;right=0;points=[[0,0.5],[1,0.5]];portConstraint=eastwest;" vertex="1" parent="PUn6JvOlg91gVEdI1GQp-85">
          <mxGeometry y="120" width="180" height="30" as="geometry" />
        </mxCell>
        <mxCell id="PUn6JvOlg91gVEdI1GQp-96" value="3" style="shape=partialRectangle;html=1;whiteSpace=wrap;connectable=0;fillColor=none;top=0;left=0;bottom=0;right=0;overflow=hidden;" vertex="1" parent="PUn6JvOlg91gVEdI1GQp-95">
          <mxGeometry width="60" height="30" as="geometry" />
        </mxCell>
        <mxCell id="PUn6JvOlg91gVEdI1GQp-97" value="빈 티켓" style="shape=partialRectangle;html=1;whiteSpace=wrap;connectable=0;fillColor=none;top=0;left=0;bottom=0;right=0;align=left;spacingLeft=6;overflow=hidden;" vertex="1" parent="PUn6JvOlg91gVEdI1GQp-95">
          <mxGeometry x="60" width="120" height="30" as="geometry" />
        </mxCell>
        <mxCell id="PUn6JvOlg91gVEdI1GQp-98" value="수령 가능한&lt;br&gt;티켓 조회" style="shape=umlLifeline;perimeter=lifelinePerimeter;whiteSpace=wrap;html=1;container=1;collapsible=0;recursiveResize=0;outlineConnect=0;rounded=1;shadow=0;comic=0;labelBackgroundColor=none;strokeWidth=1;fontFamily=Verdana;fontSize=12;align=center;size=40;" vertex="1" parent="1">
          <mxGeometry x="440" y="1159" width="100" height="96" as="geometry" />
        </mxCell>
        <mxCell id="PUn6JvOlg91gVEdI1GQp-99" value="" style="endArrow=classic;html=1;strokeColor=#FF0000;entryX=0;entryY=0.5;entryDx=0;entryDy=0;" edge="1" target="PUn6JvOlg91gVEdI1GQp-89" parent="1">
          <mxGeometry width="50" height="50" relative="1" as="geometry">
            <mxPoint x="665" y="1179" as="sourcePoint" />
            <mxPoint x="540" y="1309" as="targetPoint" />
          </mxGeometry>
        </mxCell>
        <mxCell id="PUn6JvOlg91gVEdI1GQp-100" value="" style="html=1;verticalAlign=bottom;endArrow=block;labelBackgroundColor=none;fontFamily=Verdana;fontSize=12;" edge="1" parent="1">
          <mxGeometry relative="1" as="geometry">
            <mxPoint x="210" y="1296.5000000000002" as="sourcePoint" />
            <mxPoint x="750" y="1298" as="targetPoint" />
          </mxGeometry>
        </mxCell>
        <mxCell id="PUn6JvOlg91gVEdI1GQp-101" value="티켓 받기&lt;br&gt;사용자 : A" style="shape=ext;rounded=1;html=1;whiteSpace=wrap;" vertex="1" parent="1">
          <mxGeometry x="90" y="1282" width="120" height="30" as="geometry" />
        </mxCell>
        <mxCell id="PUn6JvOlg91gVEdI1GQp-102" value="" style="endArrow=none;dashed=1;html=1;strokeColor=#FF0000;exitX=0.5;exitY=0;exitDx=0;exitDy=0;" edge="1" source="PUn6JvOlg91gVEdI1GQp-105" parent="1">
          <mxGeometry width="50" height="50" relative="1" as="geometry">
            <mxPoint x="663.5" y="1340" as="sourcePoint" />
            <mxPoint x="664" y="1295" as="targetPoint" />
          </mxGeometry>
        </mxCell>
        <mxCell id="PUn6JvOlg91gVEdI1GQp-103" value="1번 할당" style="text;html=1;strokeColor=none;fillColor=none;align=center;verticalAlign=middle;whiteSpace=wrap;rounded=0;" vertex="1" parent="1">
          <mxGeometry x="492" y="1229" width="50" height="20" as="geometry" />
        </mxCell>
        <mxCell id="PUn6JvOlg91gVEdI1GQp-104" value="1번 갱신" style="text;html=1;strokeColor=none;fillColor=none;align=center;verticalAlign=middle;whiteSpace=wrap;rounded=0;" vertex="1" parent="1">
          <mxGeometry x="609" y="1229" width="50" height="20" as="geometry" />
        </mxCell>
        <mxCell id="PUn6JvOlg91gVEdI1GQp-105" value="&lt;span style=&quot;font-family: &amp;#34;verdana&amp;#34;&quot;&gt;중복수령&lt;/span&gt;&lt;br style=&quot;font-family: &amp;#34;verdana&amp;#34;&quot;&gt;&lt;span style=&quot;font-family: &amp;#34;verdana&amp;#34;&quot;&gt;validation&lt;/span&gt;" style="rounded=1;whiteSpace=wrap;html=1;" vertex="1" parent="1">
          <mxGeometry x="614" y="1352" width="100" height="40" as="geometry" />
        </mxCell>
        <mxCell id="PUn6JvOlg91gVEdI1GQp-106" value="Thread #1" style="text;html=1;strokeColor=none;fillColor=none;align=center;verticalAlign=middle;whiteSpace=wrap;rounded=0;" vertex="1" parent="1">
          <mxGeometry x="120" y="1219" width="60" height="20" as="geometry" />
        </mxCell>
        <mxCell id="PUn6JvOlg91gVEdI1GQp-107" value="Thread #2" style="text;html=1;strokeColor=none;fillColor=none;align=center;verticalAlign=middle;whiteSpace=wrap;rounded=0;" vertex="1" parent="1">
          <mxGeometry x="120" y="1312" width="60" height="20" as="geometry" />
        </mxCell>
        <mxCell id="PUn6JvOlg91gVEdI1GQp-108" value="대기" style="rounded=0;whiteSpace=wrap;html=1;" vertex="1" parent="1">
          <mxGeometry x="265" y="1289" width="340" height="20" as="geometry" />
        </mxCell>
        <mxCell id="PUn6JvOlg91gVEdI1GQp-109" value="중복수령 오류" style="text;html=1;strokeColor=none;fillColor=none;align=center;verticalAlign=middle;whiteSpace=wrap;rounded=0;" vertex="1" parent="1">
          <mxGeometry x="667" y="1299" width="80" height="20" as="geometry" />
        </mxCell>
        <mxCell id="PUn6JvOlg91gVEdI1GQp-110" value="비관적 락&lt;br&gt;Pessimistic" style="shape=umlLifeline;perimeter=lifelinePerimeter;whiteSpace=wrap;html=1;container=1;collapsible=0;recursiveResize=0;outlineConnect=0;rounded=1;shadow=0;comic=0;labelBackgroundColor=none;strokeWidth=1;fontFamily=Verdana;fontSize=12;align=center;size=40;" vertex="1" parent="1">
          <mxGeometry x="215" y="1159" width="100" height="96" as="geometry" />
        </mxCell>
      </root>
    </mxGraphModel>
  </diagram>
</mxfile>
